<?xml version="1.0" encoding="utf-8"?>
<!-- Generator: Adobe Illustrator 24.3.0, SVG Export Plug-In . SVG Version: 6.00 Build 0)  -->
<svg version="1.1" id="Capa_1" xmlns="http://www.w3.org/2000/svg" xmlns:xlink="http://www.w3.org/1999/xlink" x="0px" y="0px"
	 viewBox="0 0 949.22 205.71" style="enable-background:new 0 0 949.22 205.71;" xml:space="preserve">
<style type="text/css">
	.st0{fill:#0D3599;}
	.st1{fill:url(#SVGID_1_);}
	.st2{fill:#1F98EA;}
</style>
<g>
	<g>
		<path class="st0" d="M188.8,54.94v9.95h0.3c5.63-8.34,13.86-12.51,24.71-12.51c9.95,0,17.28,2.84,22,8.51
			c4.72,5.68,7.08,13.54,7.08,23.58v47.77h-27.43V94.57c0-0.2,0-0.98,0-2.34c0-1.36,0-2.26,0-2.71c0-0.45-0.03-1.3-0.08-2.56
			c-0.05-1.26-0.15-2.19-0.3-2.79c-0.15-0.6-0.38-1.46-0.68-2.56c-0.3-1.1-0.66-1.91-1.06-2.41c-0.4-0.5-0.93-1.13-1.58-1.88
			c-0.66-0.75-1.38-1.3-2.19-1.66c-0.81-0.35-1.76-0.68-2.86-0.98c-1.11-0.3-2.31-0.45-3.62-0.45c-9.55,0-14.32,5.98-14.32,17.93
			v40.08h-27.43V54.94H188.8z"/>
		<path class="st0" d="M341.75,54.94v77.31h-27.43v-8.59h-0.3c-2.31,3.72-5.58,6.51-9.79,8.36c-4.22,1.86-8.74,2.79-13.56,2.79
			c-11.25,0-20.57-4.04-27.95-12.13c-7.38-8.09-11.08-17.81-11.08-29.16c0-11.35,3.64-21.05,10.92-29.08
			c7.28-8.04,16.55-12.06,27.8-12.06c10.25,0,18.23,3.37,23.96,10.1v-7.53H341.75z M310.48,81.23c-3.16-3.36-7.46-5.05-12.88-5.05
			c-5.42,0-9.72,1.68-12.88,5.05c-3.16,3.37-4.75,7.51-4.75,12.43c0,5.02,1.58,9.17,4.75,12.43c3.16,3.27,7.46,4.9,12.88,4.9
			c5.43,0,9.72-1.63,12.88-4.9c3.16-3.26,4.75-7.41,4.75-12.43C315.23,88.75,313.64,84.6,310.48,81.23z"/>
		<path class="st0" d="M386.2,77.54v54.7h-27.43v-54.7h-8.89v-22.6h8.89V31.73h27.43v23.21h15.52v22.6H386.2z"/>
		<path class="st0" d="M409.56,14.4c3.01-3.01,6.63-4.52,10.85-4.52s7.84,1.51,10.85,4.52c3.01,3.01,4.52,6.63,4.52,10.85
			s-1.51,7.84-4.52,10.85c-3.01,3.01-6.63,4.52-10.85,4.52s-7.84-1.51-10.85-4.52c-3.01-3.01-4.52-6.63-4.52-10.85
			S406.54,17.42,409.56,14.4z M434.12,54.94v77.31h-27.43V54.94H434.12z"/>
		<path class="st0" d="M467.87,54.94l18.53,39.63l18.38-39.63h30.74l-40.39,77.31h-17.48l-40.54-77.31H467.87z"/>
		<path class="st0" d="M546.31,63.53c8.99-7.43,20.02-11.15,33.08-11.15c13.06,0,24.09,3.72,33.08,11.15
			c8.99,7.44,13.49,17.48,13.49,30.14s-4.5,22.68-13.49,30.06c-8.99,7.38-20.02,11.08-33.08,11.08c-12.96,0-23.96-3.69-33-11.08
			c-9.04-7.38-13.56-17.41-13.56-30.06S537.31,70.96,546.31,63.53z M592.27,81.23c-3.16-3.36-7.46-5.05-12.88-5.05
			c-5.42,0-9.72,1.68-12.88,5.05c-3.16,3.37-4.75,7.51-4.75,12.43c0,5.02,1.58,9.17,4.75,12.43c3.16,3.27,7.46,4.9,12.88,4.9
			c5.43,0,9.72-1.63,12.88-4.9c3.16-3.26,4.75-7.41,4.75-12.43C597.01,88.75,595.43,84.6,592.27,81.23z"/>
	</g>
</g>
<g>
	<g>
		<path class="st0" d="M673.72,63.53c8.99-7.43,20.02-11.15,33.08-11.15c13.06,0,24.09,3.72,33.08,11.15
			c8.99,7.44,13.49,17.48,13.49,30.14s-4.5,22.68-13.49,30.06c-8.99,7.38-20.02,11.08-33.08,11.08c-12.96,0-23.96-3.69-33-11.08
			c-9.04-7.38-13.56-17.41-13.56-30.06S664.73,70.96,673.72,63.53z M719.68,81.23c-3.16-3.36-7.46-5.05-12.88-5.05
			c-5.42,0-9.72,1.68-12.88,5.05c-3.16,3.37-4.75,7.51-4.75,12.43c0,5.02,1.58,9.17,4.75,12.43c3.16,3.27,7.46,4.9,12.88,4.9
			c5.43,0,9.72-1.63,12.88-4.9c3.16-3.26,4.75-7.41,4.75-12.43C724.43,88.75,722.84,84.6,719.68,81.23z"/>
		<path class="st0" d="M789.37,54.94v9.95h0.3c5.63-8.34,13.86-12.51,24.71-12.51c9.95,0,17.28,2.84,22,8.51
			c4.72,5.68,7.08,13.54,7.08,23.58v47.77h-27.43V94.57c0-0.2,0-0.98,0-2.34c0-1.36,0-2.26,0-2.71c0-0.45-0.03-1.3-0.08-2.56
			c-0.05-1.26-0.15-2.19-0.3-2.79c-0.15-0.6-0.38-1.46-0.68-2.56c-0.3-1.1-0.66-1.91-1.06-2.41c-0.4-0.5-0.93-1.13-1.58-1.88
			c-0.66-0.75-1.38-1.3-2.19-1.66c-0.81-0.35-1.76-0.68-2.86-0.98c-1.11-0.3-2.31-0.45-3.62-0.45c-9.55,0-14.32,5.98-14.32,17.93
			v40.08h-27.43V54.94H789.37z"/>
		<path class="st0" d="M937.2,95.32v2.86h-57.72c0,11.45,5.73,17.18,17.18,17.18c5.93,0,10.3-2.36,13.11-7.08h26.37
			c-2.11,8.64-6.83,15.22-14.16,19.74c-7.33,4.52-15.72,6.78-25.17,6.78c-13.26,0-24.04-3.62-32.32-10.85
			c-8.29-7.23-12.43-17.33-12.43-30.29c0-12.76,3.94-22.83,11.83-30.21c7.89-7.38,18.21-11.08,30.97-11.08
			c13.36,0,23.76,3.84,31.19,11.53C933.48,71.59,937.2,82.06,937.2,95.32z M879.94,82.36h31.8c-0.7-3.62-2.51-6.56-5.42-8.82
			c-2.92-2.26-6.28-3.39-10.1-3.39c-4.12,0-7.66,1.05-10.62,3.16C882.62,75.43,880.74,78.45,879.94,82.36z"/>
	</g>
</g>
<linearGradient id="SVGID_1_" gradientUnits="userSpaceOnUse" x1="14.513" y1="102.3254" x2="114.5716" y2="102.3254">
	<stop  offset="0" style="stop-color:#00FFFF"/>
	<stop  offset="1" style="stop-color:#007FFF"/>
</linearGradient>
<path class="st1" d="M65.94,101.76h48.63v93.01H65.94V101.76z M14.51,106.89c7.09,0.44,39.05,1.63,66.8-21.78
	c33.74-28.47,33.38-69.8,33.24-75.22H65.71c0.01,3.18-0.3,23.88-17.29,38.74C34.58,60.73,18.63,61.11,14.51,61.08
	C14.51,76.35,14.51,91.62,14.51,106.89z"/>
<g>
	<g>
		<g>
			<path class="st2" d="M180.5,153.4h2.93l19.13,41.37h-3.34l-5.22-11.5h-24.24l-5.22,11.5h-3.17L180.5,153.4z M192.7,180.51
				l-10.8-23.76l-10.86,23.76H192.7z"/>
			<path class="st2" d="M224.45,153.69h3.05v38.26h24.12v2.82h-27.17V153.69z"/>
			<path class="st2" d="M264.94,153.69h3.4l12.91,36.56l12.03-36.67h2.35l12.03,36.67l12.91-36.56h3.17l-14.9,41.37h-2.46
				l-12.03-35.68l-12.03,35.68h-2.46L264.94,153.69z"/>
			<path class="st2" d="M356.3,153.4h2.93l19.13,41.37h-3.34l-5.22-11.5h-24.23l-5.22,11.5h-3.17L356.3,153.4z M368.51,180.51
				l-10.8-23.76l-10.86,23.76H368.51z"/>
			<path class="st2" d="M407.18,178.52l-17.6-24.82h3.81l15.37,22.06l15.43-22.06h3.64l-17.6,24.76v16.31h-3.05V178.52z"/>
			<path class="st2" d="M444.32,188.78l2-2.29c4.52,4.17,8.68,6.1,14.73,6.1c6.16,0,10.39-3.46,10.39-8.16v-0.12
				c0-4.34-2.29-6.87-11.62-8.74c-9.86-2-13.85-5.34-13.85-11.56v-0.12c0-6.1,5.57-10.8,13.2-10.8c5.99,0,9.92,1.64,14.08,4.99
				l-1.94,2.41c-3.87-3.34-7.75-4.64-12.26-4.64c-6.04,0-10.03,3.46-10.03,7.75v0.12c0,4.34,2.23,6.98,11.97,8.98
				c9.51,1.94,13.5,5.34,13.5,11.33v0.12c0,6.63-5.69,11.21-13.61,11.21C454.3,195.36,449.25,193.18,444.32,188.78z"/>
			<path class="st2" d="M526.71,174.35v-0.12c0-11.21,8.27-21.24,20.71-21.24c12.44,0,20.6,9.92,20.6,21.12v0.12
				c0,11.21-8.27,21.24-20.71,21.24C534.87,195.47,526.71,185.56,526.71,174.35z M564.85,174.35v-0.12
				c0-10.15-7.39-18.48-17.55-18.48c-10.15,0-17.43,8.22-17.43,18.37v0.12c0,10.15,7.39,18.48,17.54,18.48
				C557.58,192.72,564.85,184.5,564.85,174.35z"/>
			<path class="st2" d="M591.61,153.69h2.87l28.34,35.74v-35.74h2.93v41.08h-2.29l-28.93-36.5v36.5h-2.93V153.69z"/>
		</g>
	</g>
</g>
</svg>
